<?xml version="1.0" encoding="UTF-8" standalone="no"?>
<svg xmlns:xlink="http://www.w3.org/1999/xlink" height="32.45px" width="415.35px" xmlns="http://www.w3.org/2000/svg">
  <g transform="matrix(1.0, 0.0, 0.0, 1.0, -24.4, -1.65)">
    <g transform="matrix(1.0, 0.0, 0.0, 1.0, 16.55, 0.0)">
      <use fill="#000000" height="32.45" transform="matrix(0.0283, 0.0, 0.0, 0.0283, 6.0, 22.0)" width="415.35" xlink:href="#font_MeMima__0"/>
      <use fill="#000000" height="32.45" transform="matrix(0.0283, 0.0, 0.0, 0.0283, 11.15, 22.0)" width="415.35" xlink:href="#font_MeMima_C0"/>
      <use fill="#000000" height="32.45" transform="matrix(0.0283, 0.0, 0.0, 0.0283, 27.4, 22.0)" width="415.35" xlink:href="#font_MeMima_o0"/>
      <use fill="#000000" height="32.45" transform="matrix(0.0283, 0.0, 0.0, 0.0283, 38.75, 22.0)" width="415.35" xlink:href="#font_MeMima_n0"/>
      <use fill="#000000" height="32.45" transform="matrix(0.0283, 0.0, 0.0, 0.0283, 52.85, 22.0)" width="415.35" xlink:href="#font_MeMima_o0"/>
      <use fill="#000000" height="32.45" transform="matrix(0.0283, 0.0, 0.0, 0.0283, 64.2, 22.0)" width="415.35" xlink:href="#font_MeMima_z0"/>
      <use fill="#000000" height="32.45" transform="matrix(0.0283, 0.0, 0.0, 0.0283, 74.05, 22.0)" width="415.35" xlink:href="#font_MeMima_c0"/>
      <use fill="#000000" height="32.45" transform="matrix(0.0283, 0.0, 0.0, 0.0283, 83.25, 22.0)" width="415.35" xlink:href="#font_MeMima_o0"/>
      <use fill="#000000" height="32.45" transform="matrix(0.0283, 0.0, 0.0, 0.0283, 106.2, 22.0)" width="415.35" xlink:href="#font_MeMima_d0"/>
      <use fill="#000000" height="32.45" transform="matrix(0.0283, 0.0, 0.0, 0.0283, 118.65, 22.0)" width="415.35" xlink:href="#font_MeMima_i0"/>
      <use fill="#000000" height="32.45" transform="matrix(0.0283, 0.0, 0.0, 0.0283, 124.0, 22.0)" width="415.35" xlink:href="#font_MeMima_v0"/>
      <use fill="#000000" height="32.45" transform="matrix(0.0283, 0.0, 0.0, 0.0283, 138.25, 22.0)" width="415.35" xlink:href="#font_MeMima_e0"/>
      <use fill="#000000" height="32.45" transform="matrix(0.0283, 0.0, 0.0, 0.0283, 145.7, 22.0)" width="415.35" xlink:href="#font_MeMima_r0"/>
      <use fill="#000000" height="32.45" transform="matrix(0.0283, 0.0, 0.0, 0.0283, 154.9, 22.0)" width="415.35" xlink:href="#font_MeMima_s0"/>
      <use fill="#000000" height="32.45" transform="matrix(0.0283, 0.0, 0.0, 0.0283, 164.0, 22.0)" width="415.35" xlink:href="#font_MeMima_a0"/>
      <use fill="#000000" height="32.45" transform="matrix(0.0283, 0.0, 0.0, 0.0283, 176.65, 22.0)" width="415.35" xlink:href="#font_MeMima_s0"/>
      <use fill="#000000" height="32.45" transform="matrix(0.0283, 0.0, 0.0, 0.0283, 197.35, 22.0)" width="415.35" xlink:href="#font_MeMima_f0"/>
      <use fill="#000000" height="32.45" transform="matrix(0.0283, 0.0, 0.0, 0.0283, 204.55, 22.0)" width="415.35" xlink:href="#font_MeMima_o0"/>
      <use fill="#000000" height="32.45" transform="matrix(0.0283, 0.0, 0.0, 0.0283, 215.9, 22.0)" width="415.35" xlink:href="#font_MeMima_r0"/>
      <use fill="#000000" height="32.45" transform="matrix(0.0283, 0.0, 0.0, 0.0283, 225.1, 22.0)" width="415.35" xlink:href="#font_MeMima_m0"/>
      <use fill="#000000" height="32.45" transform="matrix(0.0283, 0.0, 0.0, 0.0283, 244.35, 22.0)" width="415.35" xlink:href="#font_MeMima_a0"/>
      <use fill="#000000" height="32.45" transform="matrix(0.0283, 0.0, 0.0, 0.0283, 257.0, 22.0)" width="415.35" xlink:href="#font_MeMima_s0"/>
      <use fill="#000000" height="32.45" transform="matrix(0.0283, 0.0, 0.0, 0.0283, 277.7, 22.0)" width="415.35" xlink:href="#font_MeMima_d0"/>
      <use fill="#000000" height="32.45" transform="matrix(0.0283, 0.0, 0.0, 0.0283, 290.15, 22.0)" width="415.35" xlink:href="#font_MeMima_e0"/>
      <use fill="#000000" height="32.45" transform="matrix(0.0283, 0.0, 0.0, 0.0283, 309.2, 22.0)" width="415.35" xlink:href="#font_MeMima_e0"/>
      <use fill="#000000" height="32.45" transform="matrix(0.0283, 0.0, 0.0, 0.0283, 316.65, 22.0)" width="415.35" xlink:href="#font_MeMima_x0"/>
      <use fill="#000000" height="32.45" transform="matrix(0.0283, 0.0, 0.0, 0.0283, 331.55, 22.0)" width="415.35" xlink:href="#font_MeMima_p0"/>
      <use fill="#000000" height="32.45" transform="matrix(0.0283, 0.0, 0.0, 0.0283, 344.95, 22.0)" width="415.35" xlink:href="#font_MeMima_r0"/>
      <use fill="#000000" height="32.45" transform="matrix(0.0283, 0.0, 0.0, 0.0283, 354.15, 22.0)" width="415.35" xlink:href="#font_MeMima_e0"/>
      <use fill="#000000" height="32.45" transform="matrix(0.0283, 0.0, 0.0, 0.0283, 361.6, 22.0)" width="415.35" xlink:href="#font_MeMima_s0"/>
      <use fill="#000000" height="32.45" transform="matrix(0.0283, 0.0, 0.0, 0.0283, 370.7, 22.0)" width="415.35" xlink:href="#font_MeMima_a0"/>
      <use fill="#000000" height="32.45" transform="matrix(0.0283, 0.0, 0.0, 0.0283, 383.35, 22.0)" width="415.35" xlink:href="#font_MeMima_r0"/>
      <use fill="#000000" height="32.45" transform="matrix(0.0283, 0.0, 0.0, 0.0283, 392.55, 22.0)" width="415.35" xlink:href="#font_MeMima_m0"/>
      <use fill="#000000" height="32.45" transform="matrix(0.0283, 0.0, 0.0, 0.0283, 411.8, 22.0)" width="415.35" xlink:href="#font_MeMima_e0"/>
      <use fill="#000000" height="32.45" transform="matrix(0.0283, 0.0, 0.0, 0.0283, 419.25, 22.0)" width="415.35" xlink:href="#font_MeMima__2"/>
    </g>
  </g>
  <defs>
    <g id="font_MeMima__0">
      <path d="M76.0 258.5 L76.0 258.5 Q76.0 268.0 86.0 268.0 96.0 268.0 96.0 258.5 L96.0 -247.5 Q96.0 -257.0 86.0 -257.0 76.0 -257.0 76.0 -247.5 L76.0 258.5 M108.0 -368.0 L108.0 -368.0 Q108.0 -376.5 102.0 -382.5 95.5 -389.0 87.5 -389.0 77.5 -389.0 72.5 -381.0 68.0 -373.0 68.0 -368.0 68.0 -359.5 74.0 -354.0 80.5 -349.0 87.5 -349.0 108.0 -349.0 108.0 -368.0" fill-rule="evenodd" stroke="none"/>
    </g>
    <g id="font_MeMima_C0">
      <path d="M329.0 -628.0 L329.0 -628.0 Q380.5 -628.0 416.5 -614.5 452.5 -601.5 492.5 -564.5 499.5 -558.5 507.0 -565.5 514.0 -572.5 507.0 -579.0 465.5 -617.5 424.5 -633.0 383.5 -648.0 329.0 -648.0 241.5 -648.0 179.5 -618.0 117.5 -587.5 71.0 -529.0 25.0 -470.0 8.5 -420.5 -8.0 -370.5 -8.0 -306.0 -8.0 -220.0 20.5 -153.0 48.5 -86.0 102.0 -49.5 155.5 -12.5 211.0 -0.5 266.0 12.0 324.0 12.0 422.5 12.0 480.5 -10.5 538.5 -33.5 585.5 -108.5 588.5 -114.5 585.5 -119.5 582.5 -124.0 577.5 -124.0 572.5 -124.0 547.0 -85.5 522.0 -47.5 472.0 -27.5 422.0 -8.0 323.5 -8.0 269.0 -8.0 215.5 -20.5 162.0 -32.5 112.0 -67.0 62.5 -101.0 37.0 -160.5 12.0 -220.0 12.0 -306.0 12.0 -367.5 27.5 -414.0 43.0 -460.0 87.5 -516.5 132.5 -572.5 189.0 -600.5 245.5 -628.0 329.0 -628.0" fill-rule="evenodd" stroke="none"/>
    </g>
    <g id="font_MeMima_o0">
      <path d="M12.0 -114.0 L12.0 -114.0 Q12.0 -163.0 41.0 -198.5 69.5 -233.5 94.0 -238.0 119.0 -242.0 127.0 -244.0 133.0 -244.0 139.5 -244.0 156.0 -244.0 165.0 -240.0 154.0 -230.5 149.0 -222.0 144.0 -214.0 144.0 -202.5 144.0 -199.0 144.0 -192.0 144.0 -159.5 169.5 -125.0 195.5 -91.0 231.0 -73.0 L239.5 -70.0 Q222.0 -42.0 192.5 -25.0 163.5 -8.0 133.0 -8.0 80.5 -8.0 46.5 -35.0 12.0 -62.0 12.0 -114.0 M164.0 -197.0 L164.0 -197.0 Q174.5 -229.5 193.0 -229.5 204.5 -229.5 223.0 -217.0 244.5 -195.0 250.0 -175.0 256.0 -154.5 256.0 -115.0 256.0 -100.5 250.0 -88.0 L240.5 -91.0 Q205.5 -106.5 182.0 -140.5 159.0 -174.0 164.0 -197.0 M276.0 -115.5 L276.0 -115.5 Q276.0 -153.0 267.0 -183.0 257.5 -213.0 236.0 -233.0 211.0 -249.5 187.5 -256.5 164.0 -264.0 142.5 -264.0 136.0 -264.0 126.5 -262.5 116.5 -261.0 87.5 -256.0 59.0 -251.5 25.5 -211.0 -8.0 -170.0 -8.0 -114.0 -8.0 -53.0 34.5 -20.5 76.5 12.0 134.0 12.0 172.5 12.0 208.0 -9.5 243.5 -30.5 262.0 -64.0 275.0 -60.5 288.0 -58.5 300.5 -56.0 310.5 -56.0 341.0 -56.0 368.5 -69.0 395.5 -82.0 412.0 -108.5 417.0 -116.5 413.0 -120.5 409.0 -124.0 404.0 -124.0 398.5 -124.0 390.5 -110.0 382.5 -96.0 359.5 -86.0 337.0 -76.0 309.5 -76.0 292.5 -76.0 270.0 -81.0 276.0 -99.0 276.0 -115.5" fill-rule="evenodd" stroke="none"/>
    </g>
    <g id="font_MeMima_n0">
      <path d="M136.0 -119.5 L136.0 -119.5 Q157.5 -165.0 193.0 -204.5 228.0 -244.0 263.0 -244.0 277.5 -244.0 288.5 -223.5 300.0 -203.0 300.0 -180.5 L300.0 -84.0 Q300.0 -42.0 317.0 -15.0 334.0 12.0 365.5 12.0 397.5 12.0 432.0 -14.0 467.0 -40.0 508.0 -108.5 511.0 -113.5 508.5 -119.0 506.0 -124.0 498.0 -124.0 492.5 -124.0 471.5 -88.0 450.5 -52.0 421.0 -30.0 392.0 -8.0 365.0 -8.0 320.0 -8.0 320.0 -83.5 L320.0 -180.0 Q320.0 -210.5 305.5 -237.5 291.0 -264.0 262.0 -264.0 224.0 -264.0 192.5 -235.0 161.0 -206.5 136.0 -164.0 L136.0 -181.0 Q136.0 -212.5 128.5 -235.5 121.5 -259.0 100.5 -264.0 78.5 -260.0 49.0 -212.0 19.0 -164.5 -8.0 -119.0 -11.0 -114.0 -8.5 -109.0 -6.0 -104.0 2.0 -104.0 7.0 -104.0 15.5 -118.0 23.5 -131.5 56.5 -188.0 89.5 -244.0 100.5 -244.0 109.5 -241.0 112.5 -225.0 116.0 -208.5 116.0 -182.0 L116.0 2.5 Q116.0 12.0 126.0 12.0 136.0 12.0 136.0 3.0 L136.0 -119.5" fill-rule="evenodd" stroke="none"/>
    </g>
    <g id="font_MeMima_z0">
      <path d="M93.0 281.0 L93.0 281.0 Q104.5 221.5 138.5 167.5 172.5 113.5 225.0 56.0 228.0 76.5 228.0 96.0 228.0 131.0 216.5 189.0 205.0 247.0 175.5 309.0 145.5 371.0 129.0 368.0 115.0 368.0 109.0 361.5 103.0 354.5 97.5 343.0 92.0 331.0 92.0 303.5 92.0 299.5 92.0 292.5 92.0 286.0 93.0 281.0 M72.0 -293.5 L72.0 -293.5 Q72.0 -279.0 68.5 -256.0 55.5 -266.5 52.0 -274.0 48.0 -282.0 48.0 -294.5 48.0 -312.0 58.5 -312.0 72.0 -312.0 72.0 -293.5 M134.0 388.0 L134.0 388.0 Q163.5 383.0 190.5 323.0 217.5 263.0 232.5 198.5 248.0 134.5 248.0 99.5 248.0 69.0 240.0 36.0 256.5 17.5 298.5 -28.5 340.0 -74.5 358.5 -108.5 361.5 -113.5 359.0 -119.0 356.5 -124.0 348.5 -124.0 343.5 -124.0 336.5 -110.5 329.5 -97.0 313.0 -76.5 297.0 -56.0 232.5 16.0 219.0 -18.5 191.0 -35.0 163.0 -52.0 126.0 -52.0 119.0 -52.0 104.0 -48.0 136.5 -89.5 162.5 -138.0 188.0 -186.5 208.0 -228.0 208.0 -243.5 196.5 -243.5 172.5 -236.0 141.0 -236.0 124.5 -236.0 111.0 -238.5 97.0 -240.5 88.0 -246.5 92.0 -273.0 92.0 -293.0 92.0 -308.5 82.5 -320.5 73.5 -332.0 58.5 -332.0 47.5 -332.0 38.0 -322.0 28.0 -312.0 28.0 -294.5 28.0 -257.0 60.0 -236.0 46.5 -207.5 29.5 -179.5 12.5 -152.0 -8.0 -119.5 -11.0 -114.0 -8.5 -109.0 -6.0 -104.0 2.0 -104.0 7.0 -104.0 16.5 -120.0 26.0 -135.5 45.0 -168.0 64.0 -200.5 76.0 -228.0 91.0 -216.0 137.0 -216.0 162.5 -216.0 181.5 -220.0 161.5 -177.5 127.5 -119.0 93.0 -60.5 68.0 -36.5 63.0 -32.5 68.0 -26.0 73.0 -20.0 79.0 -20.0 104.5 -32.0 127.0 -32.0 160.0 -32.0 184.0 -15.5 208.5 0.5 220.0 32.0 163.5 89.5 125.5 149.0 87.5 208.5 79.0 244.5 71.0 280.5 69.5 289.5 68.0 299.0 68.0 308.0 68.0 340.0 82.5 364.0 97.0 388.0 134.0 388.0" fill-rule="evenodd" stroke="none"/>
    </g>
    <g id="font_MeMima_c0">
      <path d="M137.5 -244.0 L137.5 -244.0 Q173.5 -244.0 180.5 -244.0 187.0 -244.0 192.5 -244.0 201.5 -244.0 201.5 -254.0 201.5 -264.0 192.5 -264.0 189.5 -264.0 186.0 -264.0 172.5 -264.0 137.5 -264.0 77.5 -264.0 35.0 -225.0 -8.0 -185.5 -8.0 -125.5 -8.0 -57.0 44.0 -22.5 96.0 12.0 159.0 12.0 232.0 12.0 265.0 -19.0 297.5 -50.0 337.0 -107.5 341.0 -115.0 332.5 -121.0 324.5 -127.0 320.5 -120.0 282.0 -62.0 253.5 -35.0 224.5 -8.0 158.5 -8.0 101.5 -8.0 57.0 -38.0 12.0 -68.0 12.0 -125.5 12.0 -176.5 49.5 -210.5 86.5 -244.0 137.5 -244.0" fill-rule="evenodd" stroke="none"/>
    </g>
    <g id="font_MeMima_d0">
      <path d="M77.5 -201.0 L77.5 -201.0 Q107.5 -222.0 143.0 -233.0 178.5 -244.0 244.0 -244.0 L244.0 -129.5 Q234.0 -85.5 188.5 -47.0 143.5 -8.0 97.0 -8.0 63.5 -8.0 37.5 -33.0 12.0 -58.5 12.0 -95.0 12.0 -152.5 77.5 -201.0 M434.5 -120.0 L434.5 -120.0 Q398.5 -65.0 371.5 -36.5 344.0 -8.0 310.0 -8.0 264.0 -8.0 264.0 -119.5 L264.0 -559.0 Q264.0 -568.0 254.0 -568.0 244.0 -568.0 244.0 -559.0 L244.0 -264.0 Q194.0 -264.0 150.0 -254.0 105.5 -244.5 67.5 -217.0 29.0 -189.5 10.5 -162.5 -8.0 -135.5 -8.0 -95.0 -8.0 -49.0 23.0 -18.5 54.5 12.0 97.0 12.0 139.0 12.0 180.0 -14.5 220.5 -41.0 244.0 -79.0 244.0 -37.5 260.0 -13.0 276.0 12.0 310.0 12.0 355.0 12.0 381.0 -15.5 406.5 -42.5 451.0 -107.5 455.0 -115.0 446.5 -121.0 438.5 -127.0 434.5 -120.0" fill-rule="evenodd" stroke="none"/>
    </g>
    <g id="font_MeMima_i0">
      <path d="M20.0 -413.0 L20.0 -413.0 Q20.0 -420.5 14.0 -426.5 7.5 -432.0 -0.5 -432.0 -10.5 -432.0 -15.5 -425.0 -20.0 -418.0 -20.0 -413.0 -20.0 -405.5 -14.0 -400.5 -7.5 -396.0 -0.5 -396.0 20.0 -396.0 20.0 -413.0 M12.0 -254.5 L12.0 -254.5 Q12.0 -264.0 2.0 -264.0 -8.0 -264.0 -8.0 -254.5 L-8.0 -78.5 Q-8.0 -43.5 9.0 -16.0 26.0 12.0 62.5 12.0 135.5 12.0 201.5 -108.5 204.5 -113.5 202.0 -119.0 199.5 -124.0 191.5 -124.0 186.0 -124.0 170.0 -94.5 154.0 -65.5 121.5 -36.5 88.5 -8.0 62.0 -8.0 36.0 -8.0 24.0 -27.5 12.0 -47.0 12.0 -78.0 L12.0 -254.5" fill-rule="evenodd" stroke="none"/>
    </g>
    <g id="font_MeMima_v0">
      <path d="M306.0 -236.0 L306.0 -236.0 Q323.0 -236.0 333.0 -225.5 343.0 -215.5 345.5 -194.5 348.0 -174.0 348.0 -160.5 348.0 -132.5 343.5 -108.0 325.0 -123.5 311.5 -142.0 298.0 -160.5 295.0 -173.5 292.0 -186.5 292.0 -193.5 292.0 -215.5 299.0 -231.0 302.0 -233.0 306.0 -236.0 M403.0 -76.0 L403.0 -76.0 Q391.5 -76.0 380.5 -81.5 369.0 -87.5 360.0 -94.0 365.0 -112.5 366.5 -134.0 368.0 -155.0 368.0 -182.0 368.0 -220.0 348.0 -238.0 328.0 -256.0 305.0 -256.0 285.0 -252.0 278.5 -236.5 272.0 -221.0 272.0 -196.0 272.0 -188.0 272.0 -175.5 286.0 -124.0 336.0 -84.5 321.5 -48.5 298.5 -28.0 276.0 -8.0 246.0 -8.0 184.5 -8.0 160.5 -41.0 136.0 -74.5 136.0 -159.0 136.0 -193.0 128.5 -216.0 121.0 -239.0 98.5 -244.0 78.0 -241.0 55.0 -211.0 32.5 -181.0 -8.0 -118.0 -11.0 -113.0 -7.0 -108.5 -3.0 -104.0 2.0 -104.0 7.0 -104.0 20.5 -127.5 34.5 -151.0 60.5 -186.5 86.5 -222.0 98.5 -224.0 107.0 -222.0 111.5 -204.0 116.0 -186.0 116.0 -160.5 116.0 -71.0 143.0 -29.5 170.0 12.0 245.0 12.0 281.5 12.0 310.0 -11.0 338.0 -34.0 352.0 -72.0 376.0 -56.0 402.5 -56.0 438.5 -56.0 467.0 -68.0 495.5 -80.0 512.0 -108.5 515.0 -113.5 512.5 -119.0 510.0 -124.0 502.0 -124.0 496.5 -124.0 488.5 -109.0 480.5 -94.0 458.5 -85.0 436.5 -76.0 403.0 -76.0" fill-rule="evenodd" stroke="none"/>
    </g>
    <g id="font_MeMima_e0">
      <path d="M140.0 -207.5 L140.0 -207.5 Q140.0 -193.5 135.0 -180.5 129.5 -167.5 118.0 -157.0 107.0 -147.0 73.5 -135.5 40.5 -124.0 8.0 -124.0 9.0 -133.0 13.0 -150.0 17.5 -167.5 28.5 -191.5 39.0 -215.5 60.0 -230.0 81.0 -244.0 100.5 -244.0 114.0 -244.0 125.5 -235.0 137.0 -226.0 140.0 -207.5 M29.5 -36.5 L29.5 -36.5 Q20.5 -46.0 14.0 -66.5 8.0 -87.0 8.0 -102.0 45.5 -106.5 80.0 -117.0 114.5 -128.0 131.0 -141.0 147.5 -154.5 154.0 -173.5 160.0 -192.5 160.0 -210.5 156.0 -235.5 139.0 -249.5 122.0 -264.0 100.5 -264.0 74.5 -264.0 47.5 -245.5 21.0 -227.0 4.5 -187.0 -12.0 -146.5 -12.0 -106.5 -12.0 -54.5 10.0 -30.0 32.0 -5.5 54.5 3.5 77.0 12.0 105.0 12.0 160.0 12.0 203.5 -25.5 247.0 -62.5 271.5 -108.5 273.5 -114.5 270.0 -119.5 266.5 -124.0 261.5 -124.0 256.5 -124.0 244.5 -101.0 232.5 -78.0 191.5 -43.0 150.5 -8.0 104.5 -8.0 56.0 -8.0 29.5 -36.5" fill-rule="evenodd" stroke="none"/>
    </g>
    <g id="font_MeMima_r0">
      <path d="M64.0 -308.0 L64.0 -308.0 Q72.0 -307.0 72.0 -289.5 L70.5 -264.0 Q52.0 -278.5 52.0 -294.5 52.0 -305.0 64.0 -308.0 M150.0 -173.5 L150.0 -173.5 Q156.0 -189.0 156.0 -200.0 156.0 -225.5 138.0 -235.5 120.5 -245.0 88.0 -253.5 92.0 -273.0 92.0 -289.0 92.0 -303.0 84.0 -315.5 75.5 -328.0 60.5 -328.0 46.5 -328.0 39.0 -317.5 32.0 -307.0 32.0 -294.0 32.0 -263.5 64.0 -243.5 56.0 -225.5 28.0 -179.5 0.5 -133.5 -8.0 -119.0 -11.0 -114.0 -8.5 -109.0 -6.0 -104.0 2.0 -104.0 7.0 -104.0 11.5 -111.5 16.0 -119.0 43.0 -163.0 70.0 -206.5 81.0 -236.0 95.5 -232.0 119.5 -224.5 136.0 -217.5 136.0 -201.0 136.0 -193.0 129.5 -173.5 123.0 -154.0 115.5 -120.0 108.0 -86.5 108.0 -60.5 108.0 -28.0 132.0 -8.0 156.0 12.0 186.0 12.0 230.5 12.0 262.5 -16.5 294.0 -44.5 334.0 -108.5 337.0 -114.5 334.0 -119.5 331.0 -124.0 326.0 -124.0 320.5 -124.0 298.5 -90.0 276.5 -55.5 249.5 -32.0 222.5 -8.0 185.5 -8.0 163.0 -8.0 145.5 -22.5 128.0 -36.5 128.0 -60.0 128.0 -81.5 135.0 -115.5 141.5 -149.0 150.0 -173.5" fill-rule="evenodd" stroke="none"/>
    </g>
    <g id="font_MeMima_s0">
      <path d="M131.5 -8.0 L131.5 -8.0 Q88.0 -8.0 88.0 -28.0 88.0 -40.0 102.5 -47.0 117.0 -54.0 128.0 -55.0 139.5 -56.0 159.0 -56.0 L192.0 -56.0 Q180.5 -37.0 163.5 -22.5 146.5 -8.0 131.5 -8.0 M60.5 -308.0 L60.5 -308.0 Q77.5 -308.0 80.0 -289.0 81.0 -281.0 76.5 -267.5 72.0 -254.0 67.5 -244.0 58.0 -253.0 51.0 -265.5 44.0 -277.5 44.0 -288.0 44.0 -308.0 60.5 -308.0 M220.0 -98.0 L220.0 -98.0 Q214.0 -138.5 165.0 -174.5 122.5 -202.0 80.0 -229.0 87.5 -244.5 94.0 -258.0 100.0 -271.5 100.0 -278.0 100.0 -295.5 90.5 -311.5 81.0 -328.0 58.0 -328.0 44.0 -328.0 34.0 -314.5 24.0 -301.0 24.0 -287.5 24.0 -271.5 33.0 -255.5 41.5 -240.0 56.0 -226.0 48.0 -211.0 22.5 -169.5 -3.0 -128.0 -8.0 -119.0 -11.0 -114.0 -8.5 -109.0 -6.0 -104.0 2.5 -104.0 7.5 -104.0 17.5 -120.5 28.0 -136.5 44.0 -162.0 60.0 -187.0 74.5 -212.0 115.0 -184.0 157.5 -153.5 200.0 -123.5 200.0 -95.0 200.0 -94.0 200.0 -86.0 200.0 -78.0 199.0 -76.0 195.0 -76.0 186.0 -76.0 173.0 -76.0 160.5 -76.0 141.5 -76.0 126.5 -73.5 111.5 -71.0 98.5 -64.5 68.0 -55.5 68.0 -29.5 68.0 -12.0 85.0 0.0 101.5 12.0 135.5 12.0 161.0 12.0 181.5 -7.0 202.5 -26.5 214.0 -56.0 L229.0 -56.0 Q253.5 -56.0 285.0 -72.0 316.5 -88.5 331.0 -108.5 336.0 -117.0 332.0 -120.5 328.0 -124.0 323.0 -124.0 317.5 -124.0 312.0 -114.5 306.5 -104.5 273.5 -90.5 240.5 -76.0 220.0 -76.0 L220.0 -98.0" fill-rule="evenodd" stroke="none"/>
    </g>
    <g id="font_MeMima_a0">
      <path d="M12.0 -81.0 L12.0 -81.0 Q12.0 -147.5 80.0 -196.0 147.5 -244.0 244.0 -244.0 L244.0 -139.5 Q244.0 -76.5 198.0 -42.5 151.5 -8.0 106.5 -8.0 67.5 -8.0 39.5 -27.5 12.0 -47.0 12.0 -81.0 M264.0 -254.0 L264.0 -254.0 Q263.0 -257.0 261.5 -260.5 260.0 -264.0 254.0 -264.0 147.5 -264.0 69.5 -212.5 -8.0 -160.5 -8.0 -81.0 -8.0 -36.0 26.5 -12.0 60.5 12.0 107.0 12.0 141.5 12.0 181.5 -7.5 221.5 -27.5 244.0 -64.0 247.0 -30.0 263.5 -9.0 280.5 12.0 309.0 12.0 360.5 12.0 394.0 -27.5 428.0 -66.5 451.5 -106.0 453.5 -113.0 450.0 -118.5 446.5 -124.0 441.0 -124.0 436.0 -124.0 423.0 -102.0 409.5 -80.5 378.5 -44.0 348.0 -8.0 309.0 -8.0 288.5 -8.0 276.5 -26.5 264.0 -44.5 264.0 -77.5 L264.0 -254.0" fill-rule="evenodd" stroke="none"/>
    </g>
    <g id="font_MeMima_f0">
      <path d="M168.0 -477.5 L168.0 -477.5 Q160.5 -438.5 138.0 -384.0 115.0 -329.0 88.0 -279.0 L88.0 -513.5 Q88.0 -574.5 98.5 -601.5 109.0 -628.0 128.5 -628.0 142.0 -632.0 157.0 -601.0 172.0 -569.5 172.0 -523.5 172.0 -512.5 171.0 -500.0 170.0 -487.5 168.0 -477.5 M-40.0 268.0 L-40.0 268.0 Q-40.0 235.5 -10.5 195.0 19.0 154.5 68.0 109.5 L68.0 261.0 Q68.0 292.5 52.0 314.0 36.0 336.0 9.0 336.0 -14.0 336.0 -27.0 316.5 -40.0 297.5 -40.0 268.0 M128.5 -648.0 L128.5 -648.0 Q92.5 -648.0 80.5 -615.5 68.0 -583.0 68.0 -513.5 L68.0 -242.5 -4.0 -119.0 Q-7.0 -114.0 -4.5 -109.0 -2.0 -104.0 5.5 -104.0 10.0 -104.0 13.0 -108.0 L68.0 -203.0 68.0 -128.0 68.0 75.5 Q7.0 131.0 -26.5 177.0 -60.0 223.0 -60.0 267.0 -60.0 301.0 -42.0 328.5 -24.0 356.0 9.0 356.0 46.0 356.0 67.0 326.5 88.0 297.0 88.0 260.0 L88.0 89.0 Q158.0 24.0 199.5 -19.0 241.5 -62.0 268.0 -108.5 271.0 -114.0 268.5 -119.0 266.0 -124.0 257.5 -124.0 252.5 -124.0 239.0 -100.5 226.0 -77.0 188.0 -37.5 149.5 2.0 88.0 58.5 L88.0 -125.5 88.0 -236.5 Q125.0 -301.0 152.0 -362.5 178.5 -424.5 184.0 -453.0 189.0 -481.5 192.0 -499.0 192.0 -510.0 192.0 -522.5 192.0 -576.5 174.5 -610.5 157.0 -645.0 128.5 -648.0" fill-rule="evenodd" stroke="none"/>
    </g>
    <g id="font_MeMima_m0">
      <path d="M262.0 -264.0 L262.0 -264.0 Q225.0 -264.0 193.0 -235.5 161.0 -207.0 136.0 -166.0 L136.0 -183.0 Q136.0 -214.0 129.0 -236.5 122.0 -259.0 99.5 -264.0 81.5 -260.0 51.5 -213.0 21.0 -165.5 -8.0 -118.0 -11.0 -113.0 -7.0 -108.5 -3.0 -104.0 2.0 -104.0 7.0 -104.0 20.5 -128.0 34.5 -152.5 62.0 -198.0 89.5 -244.0 99.5 -244.0 109.0 -243.0 112.5 -227.0 116.0 -211.0 116.0 -183.5 L116.0 -1.0 Q116.0 8.0 126.0 8.0 136.0 8.0 136.0 -1.0 L136.0 -122.0 Q157.0 -164.5 192.5 -204.5 228.5 -244.0 262.5 -244.0 278.0 -244.0 289.0 -225.0 300.0 -206.0 300.0 -183.0 L300.0 -1.0 Q300.0 8.0 310.0 8.0 320.0 8.0 320.0 -1.0 L320.0 -121.0 Q340.5 -165.0 376.0 -204.5 412.0 -244.0 447.0 -244.0 462.5 -244.0 473.0 -225.0 484.0 -206.0 484.0 -182.5 L484.0 -104.5 Q484.0 -47.5 499.0 -17.5 514.0 12.0 551.0 12.0 590.0 12.0 624.0 -18.5 658.0 -49.0 692.0 -108.5 695.0 -113.5 692.5 -119.0 690.0 -124.0 681.5 -124.0 676.5 -124.0 660.5 -95.0 644.5 -66.0 611.5 -37.0 578.5 -8.0 550.5 -8.0 523.5 -8.0 514.0 -28.0 504.0 -48.0 504.0 -104.0 L504.0 -182.0 Q504.0 -213.0 489.5 -238.5 475.0 -264.0 446.0 -264.0 409.0 -264.0 377.0 -235.0 345.0 -206.0 320.0 -164.0 L320.0 -183.0 Q320.0 -213.5 305.5 -238.5 291.0 -264.0 262.0 -264.0" fill-rule="evenodd" stroke="none"/>
    </g>
    <g id="font_MeMima_x0">
      <path d="M362.0 -158.5 L362.0 -158.5 Q333.0 -146.0 310.0 -141.0 287.5 -136.0 256.0 -132.0 256.0 -178.0 282.5 -211.0 309.0 -244.0 347.5 -244.0 373.5 -244.0 391.0 -235.0 408.0 -225.5 408.0 -210.5 408.0 -193.0 395.5 -180.5 383.0 -167.5 362.0 -158.5 M148.0 -93.5 L148.0 -93.5 Q170.5 -101.0 190.5 -103.5 210.5 -106.0 232.0 -108.0 226.0 -67.0 199.0 -37.5 171.5 -8.0 137.0 -8.0 121.5 -8.0 109.0 -18.0 96.0 -28.5 96.0 -40.5 96.0 -60.0 111.0 -74.0 125.5 -87.5 148.0 -93.5 M517.5 -118.5 L517.5 -118.5 Q480.5 -56.0 439.0 -32.0 397.5 -8.0 355.5 -8.0 319.5 -8.0 292.0 -38.5 264.0 -69.5 260.0 -111.0 293.0 -116.5 317.5 -122.5 342.5 -128.5 368.0 -139.0 394.0 -150.0 411.0 -167.0 428.0 -184.5 428.0 -210.0 428.0 -239.5 404.5 -252.0 381.0 -264.0 348.0 -264.0 311.0 -264.0 284.5 -241.5 257.5 -218.5 246.5 -187.5 234.0 -222.5 208.0 -243.5 182.0 -264.0 144.0 -264.0 103.0 -264.0 69.5 -225.5 36.0 -186.5 -8.0 -118.0 -11.0 -113.0 -8.0 -108.5 -5.0 -104.0 0.5 -104.0 5.5 -104.0 17.0 -122.5 29.0 -141.0 68.5 -192.5 108.5 -244.0 144.5 -244.0 185.5 -244.0 211.0 -211.5 236.0 -179.0 236.0 -129.0 215.5 -127.0 188.5 -123.5 161.0 -120.5 137.5 -113.5 114.0 -106.5 95.0 -88.0 76.0 -69.5 76.0 -41.0 76.0 -16.5 95.0 -2.5 113.5 12.0 137.0 12.0 178.0 12.0 205.0 -14.0 232.0 -39.5 246.0 -80.0 257.5 -41.5 286.0 -15.0 314.5 12.0 355.5 12.0 402.5 12.0 449.0 -15.0 496.0 -42.0 536.0 -108.5 539.0 -113.5 536.5 -119.0 533.5 -124.0 525.5 -124.0 520.5 -124.0 517.5 -118.5" fill-rule="evenodd" stroke="none"/>
    </g>
    <g id="font_MeMima_p0">
      <path d="M80.0 -28.0 L80.0 -28.0 Q80.0 -85.5 139.0 -168.5 198.0 -252.0 224.5 -248.0 245.0 -248.0 260.5 -231.5 276.0 -215.0 276.0 -193.5 L276.0 -79.5 Q276.0 -44.5 292.0 -16.0 307.5 12.0 340.0 12.0 377.5 12.0 409.0 -16.5 441.0 -44.5 481.5 -108.5 486.5 -117.0 482.5 -120.5 478.5 -124.0 473.5 -124.0 468.0 -124.0 447.5 -90.5 426.5 -56.5 398.5 -32.5 370.5 -8.0 340.0 -8.0 319.5 -8.0 307.5 -29.0 296.0 -50.0 296.0 -79.0 L296.0 -193.0 Q296.0 -224.0 275.0 -246.0 254.0 -268.0 224.5 -268.0 192.5 -265.0 149.0 -217.5 105.5 -170.0 80.0 -112.0 L80.0 -266.5 Q80.0 -276.0 70.0 -276.0 60.0 -276.0 60.0 -266.5 L60.0 -224.5 -8.0 -119.5 Q-13.0 -111.0 -9.0 -107.5 -5.0 -104.0 0.5 -104.0 5.5 -104.0 9.0 -109.0 L60.0 -187.5 60.0 383.0 Q60.0 392.0 70.0 392.0 80.0 392.0 80.0 383.0 L80.0 -28.0" fill-rule="evenodd" stroke="none"/>
    </g>
    <g id="font_MeMima__2">
      <path d="M96.0 -639.0 L96.0 -639.0 Q96.0 -648.0 86.0 -648.0 76.0 -648.0 76.0 -639.0 L76.0 -137.0 Q76.0 -128.0 86.0 -128.0 96.0 -128.0 96.0 -137.0 L96.0 -639.0 M108.0 -23.0 L108.0 -23.0 Q108.0 -31.5 102.0 -37.5 95.5 -44.0 87.5 -44.0 77.5 -44.0 72.5 -36.0 68.0 -28.0 68.0 -23.0 68.0 -14.5 74.0 -9.0 80.5 -4.0 87.5 -4.0 108.0 -4.0 108.0 -23.0" fill-rule="evenodd" stroke="none"/>
    </g>
  </defs>
</svg>
